<svg width="64" height="64" viewBox="0 0 64 64" xmlns="http://www.w3.org/2000/svg">
  <!-- Gopher -->
  <path d="M28 20c-2 0-4 2-4 4s2 4 4 4 4-2 4-4-2-4-4-4zm-8 12h16v8h-16z" stroke="#000" fill="none" stroke-width="2"/>
  <path d="M20 32h24v4H20z" stroke="#000" fill="none" stroke-width="2"/>
  <path d="M24 36h16v4H24z" stroke="#000" fill="none" stroke-width="2"/>
  <path d="M20 40h24v4H20z" stroke="#000" fill="none" stroke-width="2"/>
  <path d="M28 20v-8h-8v4l-4 4h4v4h8z" stroke="#000" fill="none" stroke-width="2"/>
  <path d="M28 20v-8h8v4l4 4h-4v4h-8z" stroke="#000" fill="none" stroke-width="2"/>

  <!-- Cloud with arrow down -->
  <path d="M44 20a20 20 0 0 1 20 20H44z" stroke="#000" fill="none" stroke-width="2"/>
  <path d="M52 28v16m-8-8l8 8 8-8" stroke="#000" fill="none" stroke-width="2"/>
</svg>